<svg xmlns="http://www.w3.org/2000/svg" width="24" height="24" viewBox="0 0 1024 1024" fill="none"><defs><clipPath id="ic_lib_stripe-clip-0"><path d="M112,345h800v333h-800z" /></clipPath></defs><g><g clip-path="url(#ic_lib_stripe-clip-0)"><path d="M912,517C912,460.1 884.4,415.2 831.7,415.2C778.9,415.2 746.9,460.1 746.9,516.6C746.9,583.5 784.6,617.2 838.8,617.2C865.3,617.2 885.3,611.2 900.4,602.8V558.3C885.3,565.9 868,570.6 846,570.6C824.4,570.6 805.3,563 802.8,536.8H911.5C911.5,533.9 912,522.3 912,517ZM802.2,495.9C802.2,470.8 817.5,460.3 831.5,460.3C845.1,460.3 859.5,470.8 859.5,495.9H802.2Z" fill="#635BFF" fill-rule="evenodd" /><path d="M661.1,415.2C639.3,415.2 625.3,425.5 617.5,432.6L614.6,418.8H565.8V677.9L621.3,666.1L621.5,603.2C629.5,609 641.3,617.2 660.9,617.2C700.6,617.2 736.9,585.2 736.9,514.8C736.6,450.3 700,415.2 661.1,415.2ZM647.7,568.3C634.6,568.3 626.9,563.7 621.5,557.9L621.3,475.5C627.1,469 635.1,464.6 647.7,464.6C668,464.6 682,487.2 682,516.3C682,546.1 668.2,568.3 647.7,568.3Z" fill="#635BFF" fill-rule="evenodd" /><path d="M489.3,402.1L545.1,390.1V345L489.3,356.8V402.1Z" fill="#635BFF" fill-rule="evenodd" /><path d="M545.1,419H489.3V613.5H545.1V419Z" fill="#635BFF" /><path d="M429.5,435.5L426,419H378V613.5H433.5V481.7C446.6,464.6 468.9,467.7 475.8,470.1V419C468.6,416.3 442.6,411.4 429.5,435.5Z" fill="#635BFF" fill-rule="evenodd" /><path d="M318.4,370.8L264.2,382.3L264,560.3C264,593.2 288.7,617.5 321.5,617.5C339.8,617.5 353.1,614.1 360.4,610.1V565C353.3,567.9 318.2,578.1 318.2,545.2V466.3H360.4V419H318.2L318.4,370.8Z" fill="#635BFF" fill-rule="evenodd" /><path d="M168.2,475.5C168.2,466.8 175.3,463.5 187.1,463.5C204,463.5 225.3,468.6 242.2,477.7V425.5C223.8,418.1 205.6,415.2 187.1,415.2C142,415.2 112,438.8 112,478.1C112,539.5 196.4,529.7 196.4,556.1C196.4,566.3 187.6,569.7 175.1,569.7C156.7,569.7 133.1,562.1 114.4,551.9V604.8C135.1,613.7 156,617.5 175.1,617.5C221.3,617.5 253.1,594.6 253.1,554.8C252.9,488.6 168.2,500.3 168.2,475.5Z" fill="#635BFF" fill-rule="evenodd" /></g></g></svg>
