<svg xmlns="http://www.w3.org/2000/svg" width="24" height="24" viewBox="0 0 1024 1024" fill="none"><path d="M124.02,124.02C248.13,124 372.24,123.99 496.35,124.02C496.39,248.13 496.38,372.24 496.35,496.35C372.24,496.38 248.13,496.39 124.02,496.35C123.99,372.24 124,248.13 124.02,124.02L124.02,124.02Z" fill="#f35325" /><path d="M529.01,124.02C653.12,124.01 777.22,123.98 901.33,124.03C901.38,248.13 901.35,372.23 901.33,496.34C777.22,496.39 653.11,496.37 529,496.35C528.99,372.24 528.96,248.13 529.01,124.02L529.01,124.02Z" fill="#81bc06" /><path d="M124.02,529.02C248.13,528.96 372.24,528.99 496.35,529C496.37,653.11 496.39,777.22 496.34,901.33C372.23,901.36 248.12,901.36 124.02,901.33C124,777.23 124,653.12 124.02,529.02L124.02,529.02Z" fill="#05a6f0" /><path d="M529,529C653.11,528.99 777.22,528.95 901.33,529.02C901.36,653.12 901.38,777.22 901.32,901.33C777.22,901.38 653.12,901.36 529.02,901.33C528.95,777.22 528.99,653.11 529,529L529,529Z" fill="#ffba08" /></svg>
