<svg id="Layer_1" data-name="Layer 1" xmlns="http://www.w3.org/2000/svg" viewBox="0 0 1024 1021.19"><defs><style>.cls-1{fill:#fefefe;}.cls-2{fill:#f8ca02;}.cls-3{fill:#0ce2aa;}.cls-4{fill:#fe6c9c;}.cls-5{fill:#02c6f6;}.cls-6{fill:#fe947c;}.cls-7{fill:#07d9c6;}.cls-8{fill:#02d0e2;}.cls-9{fill:#06dac2;}.cls-10{fill:#09dcbd;}.cls-11{fill:#fe7d8f;}.cls-12{fill:#04d4d6;}.cls-13{fill:#fe8887;}.cls-14{fill:#fe917f;}.cls-15{fill:#06d5d1;}.cls-16{fill:#07d8cb;}.cls-17{fill:#fe8d83;}.cls-18{fill:#04d3da;}.cls-19{fill:#fe7497;}.cls-20{fill:#fe818d;}.cls-21{fill:#06d6ce;}.cls-22{fill:#0ae0b0;}.cls-23{fill:#fe838b;}.cls-24{fill:#05d2de;}.cls-25{fill:#08deb6;}.cls-26{fill:#0adeb4;}.cls-27{fill:#fe7298;}.cls-28{fill:#fe8a85;}.cls-29{fill:#f276a7;}.cls-30{fill:#0890fd;}.cls-31{fill:#fe7993;}.cls-32{fill:#e9a89a;}.cls-33{fill:#7bdbe4;}.cls-34{fill:#46cfdd;}.cls-35{fill:#fec4bc;}.cls-36{fill:#87e8de;}.cls-37{fill:#04b0f8;}.cls-38{fill:#049ffb;}.cls-39{fill:#04b6f8;}.cls-40{fill:#04a4fa;}.cls-41{fill:#02a8fa;}.cls-42{fill:#02c0f6;}.cls-43{fill:#03acfa;}.cls-44{fill:#01bdf6;}.cls-45{fill:#00c4f6;}.cls-46{fill:#02baf8;}.cls-47{fill:#0ae0ad;}.cls-48{fill:#0389fe;}.cls-49{fill:#029afc;}.cls-50{fill:#0398fc;}.cls-51{fill:#0590fe;}.cls-52{fill:#0395fd;}.cls-53{fill:#058dfe;}.cls-54{fill:#03b3f8;}.cls-55{fill:#08dcba;}.cls-56{fill:#09dcbc;}.cls-57{fill:#fe7895;}</style></defs><path class="cls-1" d="M511.57.29Q761.71.29,1011.85,0C1022.13,0,1024,2.3,1024,12.29q-.48,498.15-.06,996.32c0,9.31-.88,12.59-11.85,12.58q-500.28-.62-1000.55-.06c-9.73,0-11.45-2.07-11.45-11.57Q.57,510.69,0,11.83C0,.57,3.66.1,12.7.11Q262.14.49,511.57.29Z" transform="translate(0 0)"/><path class="cls-2" d="M93.21,780.8v-.59c.1-4.33-.77-8.88,2.74-12.47l-.06.2c2.16-3-.76-6.41.76-9.47,10.62-31.5,33.72-53.14,58.45-73.33,6.85-5.59,14.64-10,22-15a350.46,350.46,0,0,1,32.23-15.17c16.12-6.64,33.3-8.26,50.29-10.8,6.14-1.31,12.38-.85,18.58-1.15a69.4,69.4,0,0,1,11.61.75c9.49,2.64,19.58,1.53,29,4.47,11.05.72,21.56,4.14,32.25,6.61,6.71,1.95,13.31,4.26,19.91,6.55,6.54,3.29,13.54,5.49,20.26,8.35,4.72,2.19,9.75,3.64,14.41,6,8.18,5.29,18.37,7.22,25.11,14.95a3,3,0,0,1-.6,3.54c-35.25,46.67-69.79,93.88-106,139.8-24.56,31.16-55.06,55.69-95.67,62-69,10.77-131.76-29.27-136.61-100.71C92.1,790.46,90.7,785.45,93.21,780.8Z" transform="translate(0 0)"/><path class="cls-3" d="M430.17,694.2l.45-1.06c2.26-11.46,12.5-17.17,19.18-25.21,10.63-12.79,21.08-26.35,36.57-34.19,10-1,18.07,3.94,26.16,8.62,93.46,54,186.7,108.4,280.8,161.29,24.4,13.72,47.75,29.31,73.37,40.83a6,6,0,0,1,2.94,2.58c-42.59,39-93.24,53.69-150,49.08-53.72-4.36-95.72-32.1-134.26-67.26C552.12,798.57,523.09,764,488.62,735,470.38,719.64,452.4,703.86,430.17,694.2Z" transform="translate(0 0)"/><path class="cls-4" d="M596.71,126.6c31.91,13.72,53.44,39,71.9,66.82,38.8,58.53,72.74,120,108.74,180.29Q821.29,447.23,864.7,521c4.71,8,8.6,16.45,12.86,24.7.77,4.31,12.13,11.89-3.44,11.2-16.48-10.14-28-25.86-42.71-38.13C811.63,502.31,791.13,487,770,472.37c-4.64-3.31-9.42-6.4-14.29-9.36-6-4.63-12.83-7.67-19.45-11.14-7.55-5.56-16.07-9.36-24.43-13.46-2.21-1.1-4.41-2.25-6.62-3.37-3.84-2.06-7.82-3.86-11.77-5.71-7.45-3.83-15.56-6.16-23-9.94-8.48-3.81-17.46-6.15-26.24-9.1-3.24-1.11-6.54-2.07-9.81-3.1a263.09,263.09,0,0,0-52.12-13.27c-3.86-1.21-7.58-2.6-9.28-6.78a7.51,7.51,0,0,1,1.66-4.63c4.29-7.32,3.27-15.44,3.28-23.3q.15-100.48.06-201c0-4.68-.08-9.37.06-14C578.53,127.29,579.06,126.8,596.71,126.6Z" transform="translate(0 0)"/><path class="cls-5" d="M178.48,672.7c-29.74,19.86-56.27,42.84-74,74.66-2.22,4-4.74,7.6-5.61,12.11-2.68.64-4-.15-3.22-3.09.59-13.47,6.89-25.16,12.4-36.85,31.5-66.85,67.15-131.53,103.92-195.59,1.57-4.72,3.76-9,7.7-12.25l3.23-4.84c3.28-4.83,6.23-9.88,9.5-14.72,22.48-26.39,47.57-49.86,77.39-67.78,28.91-17.37,59.51-30.78,92.83-37.3,7.84-1.84,15.87-2.59,23.7-4.49,10.85-1,21.5-3.83,32.48-3.78,7.93.51,16.05-1.25,23.74,2a4.05,4.05,0,0,1,2.22,3.78c-2.11,3.82-6,4-9.59,4.57-18.33-1.1-28,11.63-39.23,23.19-21.11,21.69-43.26,42.39-64.71,63.75C341.41,505.71,312,535.74,281.83,565c-32.56,31.58-63.95,64.35-96.36,96.09C182.39,664.1,175.69,665.82,178.48,672.7Z" transform="translate(0 0)"/><path class="cls-6" d="M402.68,389.74c-64.58,15.67-119.12,47.81-162.24,98.76-2.07,2.45-4.76,4.38-7.16,6.55-4.42-.31-4.17-2.7-2.56-5.72q35.92-65.82,71.88-131.63,44.28-80.61,88.9-161c3.81-6.88,7.17-14.18,13.49-19.36,7.63,0,7.61,5.69,7.57,10.74-.42,61.6.23,123.19-.31,184.78C412.19,380.11,410.8,386.89,402.68,389.74Z" transform="translate(0 0)"/><path class="cls-7" d="M924.54,767.6c-1,4.07-1.44,8.35-4.85,11.37-10-14.57-26.39-20-40.67-28.47-43.45-25.66-86.94-51.32-131-75.86-53.89-30-106.89-61.52-160.61-91.81-5.74-3.23-11.44-6.42-14.24-12.87,3.32-7.53,10.41-8.88,17.29-10.58a32.36,32.36,0,0,1,20.21,4.07c77.37,45.24,155.72,88.79,233,134.19,21.33,12.53,42.68,25.07,64.48,36.76C928.59,745.37,928.74,745.09,924.54,767.6Z" transform="translate(0 0)"/><path class="cls-8" d="M903.67,593.79c7.57,14.56,18.57,27.42,21.92,44.08.45,11.44-1.9,13.35-12.18,8.13-14.6-7.41-28.66-15.89-42.8-24.16-47.3-27.66-94.86-54.86-142.3-82.27C722.16,536,714,533.17,717.15,523c6.45-5.32,14.28-4.36,21.28-3.14,11,1.92,22,1.91,33,3.07,12.35,3,24.81,5.49,37.1,8.69,29.57,8.75,55.53,24.26,79.79,42.91a14.94,14.94,0,0,1,5.36,6C896.11,585.61,898,591.1,903.67,593.79Z" transform="translate(0 0)"/><path class="cls-9" d="M573.77,571c26.67,15.71,52.91,32.22,80.15,46.87,19.52,10.5,38,22.73,57.38,33.32,36.76,20.05,72.81,41.3,109,62.3,24,13.89,47.55,28.68,72.44,40.89,7.67,3.77,13.47,10.3,22.13,12.59,4.84,1.29,4.86,7.3,4.81,12l-3.51,8.34c-15.47-1.63-27.13-11.65-40-18.7-36.78-20.15-73.13-41.15-109.46-62.06-37.19-21.4-74.54-42.6-111.56-64.34-25.29-14.85-50.08-30.61-76.3-44-8.49-4.32-20.14-6.94-20.77-20.08C561.53,571.9,565.81,567.42,573.77,571Z" transform="translate(0 0)"/><path class="cls-10" d="M559.76,579.13c2.67,7.78,10,10.68,16.21,13.8,44.85,22.54,86.57,50.58,130.75,74.4C726.31,677.89,745.48,691.58,765,702c34.32,18.39,67.15,39.39,101.76,57.21,16.83,8.66,33,18.67,49.44,28.06-4.73,10.38-9.75,20.58-18.11,28.66-6.28.68-3.84-3.54-3.67-6.49,4.4-7.26,3.77-13-4.78-16.64a18,18,0,0,1-8.55-6.86c-4.73-11-16.1-11.43-25-15.72a23,23,0,0,1-3.53-1.81C828.11,749.06,800,735.81,773,720.77c-5.27-2.93-10.74-5.5-16.92-5.94-27.17-11.46-51.92-27.45-77.46-41.92q-57.28-32.45-113.91-66.08c-8.87-5.27-18.91-7.48-27.8-12.46a5.54,5.54,0,0,1-.41-4.11C542.9,583.72,548.77,576.06,559.76,579.13Z" transform="translate(0 0)"/><path class="cls-11" d="M515.78,111.65c12.1-2,24.17-3,36.13.86-1.62,4.1-5,6.33-8.75,8.07-9.56,4.57-6.95,13.53-7,21q-.29,112.09,0,224.18c0,8.93.06,17.11-11.11,19.23-5.71,1.72-11.59,1.44-17.44,1.37a30,30,0,0,1-7.28-1.14c-3.72-2.13-10.82-1.24-10.15-7.35.51-4.63,6.7-3.79,10.51-5,9.88-4.41,6.92-13.48,6.94-20.85q.39-106.47.11-212.94C507.78,129,508,119.29,515.78,111.65Z" transform="translate(0 0)"/><path class="cls-12" d="M937.26,702.55a5,5,0,0,1-.36,6.39c-5.08,2.34-9.1-.68-13-2.93-85.41-49-170.45-98.62-256.23-147a104.1,104.1,0,0,1-24-19c.13-4.75,3.83-5.13,7.21-5.93,15.53-2.3,28.78,2.58,41.95,10.93,46.59,29.55,95.43,55.28,143.13,83,29.91,17.35,59.34,35.53,89.81,51.92C934.67,684.76,936.74,693.31,937.26,702.55Z" transform="translate(0 0)"/><path class="cls-13" d="M455.63,131.94a22.68,22.68,0,0,1,17-8.07c11.18.28,9.94,8.49,9.94,15.75q-.09,107.41,0,214.81c0,3.28-.23,6.57.07,9.83,1.47,16.19.35,17.39-16.46,16.92-3.21-.08-6.64.64-9.25-2.23a15.2,15.2,0,0,1-1.82-4.48c-1.53-68.36-.48-136.69-.52-205C454.61,157,452.11,144.35,455.63,131.94Z" transform="translate(0 0)"/><path class="cls-14" d="M402.68,389.74c5.78-4.82,5.34-11.38,5.4-18,.58-62.68-1.46-125.37,1.09-188,.14-3.49-1.51-5.1-4.17-6.41,5.9-9.86,13.14-18.48,22.87-24.81,9.15,1.62,6.55,9.1,6.64,14.52.76,43.34.27,86.69.35,130,0,22.83.12,45.67-.07,68.51-.06,8.25-1.21,15.94-9.9,19.89C417.82,388.62,410.18,388.81,402.68,389.74Z" transform="translate(0 0)"/><path class="cls-15" d="M644.15,540.08c10.45-.64,13.71,9.76,21.27,14,83.9,47.22,167.3,95.32,250.84,143.17,6.86,3.93,13.76,7.79,20.64,11.68.45,7.81.78,15.61-2.77,22.93-62.33-43.06-129.73-77.59-195-115.59q-58.73-34.15-117.88-67.62c2.28-9,10.81-7.76,17-10.41A6.88,6.88,0,0,1,644.15,540.08Z" transform="translate(0 0)"/><path class="cls-16" d="M924.54,767.6c-2.26-2.36-2.12-5-.85-7.75,3.8-8.15.36-13.64-6.77-17.23-55.37-27.9-107.37-61.75-161.75-91.44-49.3-26.93-97.25-56.34-145.7-84.82-6-3.55-12.29-4-18.87-3.85-.78-4.63,2.92-5.72,5.84-7.46a26.85,26.85,0,0,1,6-1.53c9.17-2.58,16.94,0,25.13,4.78,96.16,55.68,192.89,110.37,289,166.23,6,3.52,12.39,6.64,16.81,12.36A80.18,80.18,0,0,1,924.54,767.6Z" transform="translate(0 0)"/><path class="cls-17" d="M424.89,385.44c5-5.58,5.72-12.2,5.73-19.45.06-69.76.38-139.52.46-209.28,0-1.41-2.09-2.82-3.21-4.23a51.07,51.07,0,0,1,22.31-17.29c8.41,42.46,2.91,85.38,4,128.07.87,33.63.19,67.29.17,100.94,0,5.5-1.2,11.4,4.13,15.52l.28.27c-.06.6-.11,1.19-.16,1.79Z" transform="translate(0 0)"/><path class="cls-18" d="M937.26,702.55c-4-18.66-20.93-23.49-34.48-31.72-20.57-12.51-41.24-24.84-62.15-36.76-14.37-8.19-28.57-16.8-43-24.63-21.64-11.72-42.24-25.34-64.26-36.15-21-10.31-39-25.56-60.5-34.8-6.89-3-13.52-.29-20.2-1.21.36-7.15,6.62-6.83,11-7.8,8.4-1.89,16.78-4.32,25.51-4.3,10-1,14.94,7.47,22.17,11.19,12.37,6.36,22.13,15.85,33.92,22.6,31,17.75,63.12,33.69,94,51.63,29.27,17,57.11,36.49,86.86,52.74,8.51,4.65,6.67,13.71,10.65,20.18A26.73,26.73,0,0,1,937.26,702.55Z" transform="translate(0 0)"/><path class="cls-19" d="M574,385.48c0,.69-.08,1.39-.11,2.09a6.25,6.25,0,0,1-3.94,2.78c-6.9.07-13.58-.53-18.55-6.26-1.9-3-1.41-6.29-1.41-9.53q.07-119.67,0-239.35c0-5.12-.33-10.3,1.86-15.16,3.5-5.07,8.21-6.56,14-4.68,3.89-.12,7.8-.29,10.86,2.81,2.27,12.63-1.56,25-1.47,37.62.52,72,.07,144,.33,215.92C575.69,376.38,576.26,381.1,574,385.48Z" transform="translate(0 0)"/><path class="cls-20" d="M515.78,111.65c0,2.31,7.81,1.31,3.21,3.45-8.57,4-6.86,10.32-6.87,16.47Q512,246.79,512,362c0,7.5,2,17.11-11.2,15-10-2.9-9.92-11.18-10-19.18-.21-31.8,0-63.59-.1-95.38-.13-48.57.55-97.13-.76-145.69C498.05,112.51,506.93,112.13,515.78,111.65Z" transform="translate(0 0)"/><path class="cls-21" d="M933.38,736.89c-23-9.39-43.07-23.9-64.56-35.9-50-27.94-99.58-56.74-149.28-85.25C688,597.65,656.21,580,625.33,560.9c-8.15-5-15.13-5.45-23.4-4,3.53-9.92,10.79-11.12,19.71-8.42,20.46,3.63,35.86,17.41,53.19,27.1,49.69,27.77,98.82,56.52,148.18,84.87,31.56,18.13,63.23,36.06,94.62,54.48a47.79,47.79,0,0,1,16.5,16.92Z" transform="translate(0 0)"/><path class="cls-22" d="M883.53,833.25c-3.21,6-8.45,10-13.89,13.81l-.75-.74c0-10-5.77-14.77-14.29-19.49-39.66-22-78.36-45.72-118.18-67.4-57.53-31.33-112.51-67-170.5-97.54-18.2-9.56-34.17-23-53.16-31.27a13.3,13.3,0,0,1-7.65-7.85c2.86-14.58,12.49-6.43,18.67-4.6,12.72,3.76,22.29,13.88,34.39,19.18a7.81,7.81,0,0,1,3.47,1c2.76,2,5,5,8.89,4.94a7.3,7.3,0,0,1,2.78,2.23c3.86,5.85,8.8,9.7,16.29,9a5.58,5.58,0,0,1,3.11,1.89c3.67,5.67,9.74,7.23,15.59,9.1a7.17,7.17,0,0,1,3.22,1,74.39,74.39,0,0,0,7.05,4.48,9.34,9.34,0,0,1,2.27,2.7c3.28,6.81,10.8,4.78,15.95,7.65a9.71,9.71,0,0,1,2.89,2.36c3.78,7.15,11,8.37,17.82,10.23a7.09,7.09,0,0,1,3,2.1c7.42,6.18,15.45,11.32,24.6,14.55a8,8,0,0,1,3.46,1.13c2.71,2.3,5.35,4.77,9.32,4.51a24.08,24.08,0,0,1,9.76,5.34c1.71,1.57,4.07,3.23,4.21,5.36.63,9.71,3.61-1.68,4.93.63,4,.35,7.13,2.53,9.93,5.24a23.85,23.85,0,0,0,11.17,6.43,25.81,25.81,0,0,1,5.28,1.91c4.5,3.24,8.86,6.72,14.37,8.23,33.79,20.31,67,41.66,101.63,60.5,5.87,3.19,10.46,8.06,17.49,10A10.3,10.3,0,0,1,883.53,833.25Z" transform="translate(0 0)"/><path class="cls-23" d="M490,116.77c4.47,6.42,5.34,13.57,5.33,21.27q-.25,110.7-.12,221.39c0,6.5-.9,13.21,5.63,17.59l-8.56.47c0,.45-.05.91-.07,1.36l8.65,2.32c-5.14,7-10.9,5.54-16.87,1.24l-25.33-.63a13.37,13.37,0,0,1,.15-1.79c20.13-.36,19.89-.36,19.93-20.2.15-73,.54-146,.61-218.94,0-6.2,1.78-13.8-6.68-17A31.38,31.38,0,0,1,490,116.77Z" transform="translate(0 0)"/><path class="cls-24" d="M936.72,683.52c-13.09-26.36-42.83-30.41-63-47.22a151.82,151.82,0,0,0-33.55-20.94c-18.41-8.45-35-19.85-52.83-29-20-10.32-43.67-17.54-56.62-37.32-3.89-5.94-14.93,10.09-9.93-4.94-13.92,3-15-18.35-28.93-15.25a3.16,3.16,0,0,1,1.23-4.32c8.25-2.94,16.4-4.14,24.14,1.44,7.16,11.54,20.29,14.57,30.9,20.84q80.13,47.36,161.27,93c4,2.26,13,15.58,16.15-1.91A100,100,0,0,1,936.72,683.52Z" transform="translate(0 0)"/><path class="cls-25" d="M897.22,810c-.56,2.11-2.87,4.47.85,6-1.17,3.44-3,6.4-6.28,8.18-38.24-23-76.95-45.26-115.77-67.3C697.11,712.05,618.6,666.54,540,621.26c-8.6-3.08-13.17-12.75-22.91-14,.49-7.28,5.93-9,11.63-10.35,11.54,2,19.5,10.62,29,16.17,109,63.59,219.43,124.87,328.32,188.74C890,804.16,894.48,805.9,897.22,810Z" transform="translate(0 0)"/><path class="cls-26" d="M540.16,618.81c22.94,9.43,43.22,23.74,64.72,35.78,54.94,30.76,109.3,62.57,163.91,93.95,38,21.85,76,43.84,114.19,65.33,4.66,2.61,5.08,7.59,8.81,10.28a17.73,17.73,0,0,1-8.26,9.1c-2.89-10.08-13.76-9.52-19.45-14.55-13.15-11.61-29.66-16.76-43.36-26.94-20.33-15.12-45-23.66-64.07-40.81-4.53-3.08-9.44-5.52-14.06-8.43H737c-2.54-4.43-6.75-6.63-11.25-8.44l-8.43-5.62c-3.8-1.77-7.8-3.15-11.25-5.62l-8.44-5.63c-3.81-1.74-7.76-3.2-11.24-5.62-10.11-4.39-19.17-10.54-28.12-16.87h0c-6.49-3.87-14.55-5-19.68-11.24-6-4.74-14.84-4.49-19.68-11.25-2.53-2.29-6.23-2.84-8.43-5.62-6.57-3.74-14.43-5.21-19.68-11.25h0c-7-3-14.48-5.12-19.68-11.24h0c-3.81-1.75-7.77-3.21-11.25-5.63C551.74,633.48,539.21,632.88,540.16,618.81Z" transform="translate(0 0)"/><path class="cls-27" d="M574,385.48c-3.3-5-2.95-10.63-2.95-16.24q0-112.74-.1-225.47a59.08,59.08,0,0,1,5.84-25.59c6.16,3.93,14.75,2.11,19.9,8.42-.4.25-.79.68-1.2.71-17.69.93-13.11,14.07-13.12,24.34-.1,73.33,0,146.67-.14,220C582.24,377.55,585.1,385.87,574,385.48Z" transform="translate(0 0)"/><path class="cls-28" d="M458.49,379.72c-5.1.15-8.85,1.4-8.77-7.41.68-71.78.28-143.58.71-215.37,0-7.26-5.53-14.5-.25-21.75l5.45-3.24a76.23,76.23,0,0,1,3.09,23.41Q458.42,267.53,458.49,379.72Z" transform="translate(0 0)"/><path class="cls-29" d="M891.55,582l-3.29-5c-4.73-7.52-16.43-10.64-14.22-22.54,13.44,2.07-.31-6.88,3.52-8.7C886.81,556,894,567.4,897.38,580.94,895.65,582.49,893.94,584.14,891.55,582Z" transform="translate(0 0)"/><path class="cls-30" d="M891.55,582l5.82-1q3.15,6.44,6.29,12.85C895.24,594.34,893.17,588.38,891.55,582Z" transform="translate(0 0)"/><path class="cls-31" d="M566,115.37l-11.73,3c-2.14,1.5-4.52,1-6.88.85l-1.56-.86c.1-4,2.49-5.57,6.13-5.86C556.77,112.57,561.76,112,566,115.37Z" transform="translate(0 0)"/><path class="cls-32" d="M230.72,489.33l2.57,5.72c-1.79,5.42-4.79,9.77-10.43,11.8C222.68,499.75,226.54,494.47,230.72,489.33Z" transform="translate(0 0)"/><path class="cls-33" d="M96,767.74c.8,4.53.26,8.77-2.74,12.47C90.16,775.18,87.47,770.23,96,767.74Z" transform="translate(0 0)"/><path class="cls-34" d="M95.61,756.38l3.22,3.09c.82,3.45,0,6.32-2.93,8.47C94.16,764.13,91.51,760.34,95.61,756.38Z" transform="translate(0 0)"/><path class="cls-35" d="M219.63,511.69c-1.75,4.6-4,8.9-7.7,12.25C211.72,518.11,213.31,513.41,219.63,511.69Z" transform="translate(0 0)"/><path class="cls-36" d="M93.21,780.8c1.09,5,.15,9.78-1.31,14.52C90.06,790.27,88.81,785.29,93.21,780.8Z" transform="translate(0 0)"/><path class="cls-37" d="M582.32,391a176.25,176.25,0,0,1,54,13.95c-1.76,2.54-4.47,3.09-7.26,3.49-17.65-3.83-29.39,4.6-41.42,16.79-70.27,71.23-141.4,141.63-211.86,212.67-7.52,7.59-16.72,12.9-23.94,20.64l-33.74-7.21c-3.28-4.74-.06-9.06,2.83-11,11.93-8,16.14-22.56,27.93-30.69,17.5-12.07,29-30.55,44.86-44.28,21.9-18.94,39.75-41.77,61.27-61,18.48-16.55,34.68-35.45,52-53.16,6.44-6.58,12.57-14.09,22.43-16.11,2-.33,3.29,3.08,3.78,2.4,13-18.41,30.41-31.92,49.12-43.94A1.84,1.84,0,0,1,582.32,391Z" transform="translate(0 0)"/><path class="cls-38" d="M529,599.16c-4.22,2.18-9.09,3.49-11.25,8.42-3.84,8.14-14.46,9.55-17.87,18.1-4,3.86-7.72,8.15-13.31,9.89-21.44,16.48-36.51,39.14-55.94,57.57l-25.77-14.5a2.87,2.87,0,0,1,.17-3.79c74.91-68.72,144.16-143.17,216.81-214.17,12.06-11.78,23.81-23.89,35.83-35.71,4-3.91,7.76-8.41,14.33-7.37a62.35,62.35,0,0,1,23,10c-10.2,12.1-18.28,26.16-32.16,34.89-3.18,2-6.65,4.38-8.12,7.56-7.38,16-24.33,21.86-35.23,34.18-24.45,27.61-52,52.17-78.31,78-2.31,2.27-4.61,4.76-3.77,8.52-.06.9-.14,1.8-.23,2.69C535.66,597.05,531.21,596.52,529,599.16Z" transform="translate(0 0)"/><path class="cls-39" d="M528.92,436.07c-19.94,14.55-36.14,33.49-52.92,51-14.36,15-31.76,27.2-44,43.42-13.69,18.14-33.65,29.44-46.72,46.73-12.62,16.68-30.42,27.19-42.71,42.92-8.08,10.35-19.84,18.1-24.47,31.16-9.41-1.11-19-.66-28.15-3.94-5.7-9.12,1.9-13.79,6.81-18.78C321,603.93,345.64,579.69,370,555.13c46.35-46.79,93.69-92.59,139.31-140.1,9.62-10,21.74-17.61,29-29.89a10.11,10.11,0,0,1,6.7-3.71c3.31,0,5.8,2.55,9,2.95l17,4.36C561.48,408.54,544,421.2,528.92,436.07Z" transform="translate(0 0)"/><path class="cls-40" d="M672,417.6c-4.63,3.86-9.59,7.39-13.84,11.64Q544,543.15,430.06,657.2c-7.82,7.82-15.14,16.25-25.21,21.44-5-1.13-9.94-2.47-13.78-6.22-2.15-10.3,6.14-15,11.75-20.61Q486.45,567.75,570.41,484c21.5-21.5,42.94-43.05,64.55-64.44,3.68-3.65,7.16-7.33,9.32-12.1A78.19,78.19,0,0,1,672,417.6Z" transform="translate(0 0)"/><path class="cls-41" d="M644.28,407.5c3.88,8.05-3.59,10.77-7.42,14.62Q520.81,538.55,404.46,654.66c-5.31,5.31-10.74,10.47-13.39,17.76a52.22,52.22,0,0,1-19.85-7.78c-6.44-6.5-.1-9.64,3.6-13.35q93-93.33,187.11-185.56c16-15.73,31.72-31.73,47.57-47.59,5.36-5.37,10.75-10.19,17.81-13l9-.26C639.34,404.64,642.16,405,644.28,407.5Z" transform="translate(0 0)"/><path class="cls-42" d="M472.68,385.49l11.24-.05c6.66-1.7,15.83-4.31,19,1.22s-6.19,9-10.28,13.13Q376.89,515.44,261.35,631.32c-4.5,4.51-13.14,9.78-1.31,16.1l-51.42,11.31c-7.52-5.14-1.45-8.59,1.73-12,24.7-26.5,51.29-51.14,76.09-77.57,17.38-18.51,36.45-35.36,54.89-52.82,23.71-22.47,45.3-47,69.14-69.35C431.75,427.05,451.69,405.74,472.68,385.49Z" transform="translate(0 0)"/><path class="cls-43" d="M627.31,405.16Q500.67,530.93,373.85,656.54c-2.83,2.79-3.77,4.72-2.63,8.1-6.91-.64-13.27-3-19.39-6.15.48-2.17-6.11-4.68-1.23-5.47,8.08-1.3,11.9-7.1,16.68-11.88,73.57-73.37,147.35-146.54,220.14-220.67C599.34,408.32,610.9,402.22,627.31,405.16Z" transform="translate(0 0)"/><path class="cls-44" d="M260,647.42l-12.46-1c7.54-16.09,174.46-186.52,255.59-261H483.92c0-1,0-2,0-3l16.87-1.24,5.6,1.41c3.95,4.43,12.67-2.54,14.28,4.78,1.54,7-4.9,11.67-9.45,16.23Q395.94,519.09,280.3,634.22c-4.95,4.92-5.8,8.1-1.54,13A44.75,44.75,0,0,1,260,647.42Z" transform="translate(0 0)"/><path class="cls-45" d="M472.68,385.49c-1.38,2.73,6.62,11.29-5,8-.8-.23-2.53,3.64-4.15,5.27-33.5,33.48-68,66-100.17,100.75-16.53,17.86-34.22,34.92-51.59,51.42-22.88,21.73-43.32,46-67.41,66.15-12.79,10.69-20.56,25.68-34.5,34.62-3.53,2.27-2.16,4.48-1.25,7.05l-30.14,14c-11.53-4.24-.61-8.75.91-10.37,12.4-13.16,25.59-25.56,38.42-38.32,23.87-23.73,47.34-47.86,71.54-71.23,25.58-24.7,50.27-50.25,75.26-75.51,28.34-28.64,59.11-55,86.14-84.75C458.8,383.65,467.4,392.93,472.68,385.49Z" transform="translate(0 0)"/><path class="cls-46" d="M278.76,647.24c-2.65-4.61-7.65-2.35-12.05-3.73L501.15,409c2.65-2.65,5.31-5.29,8-7.95,12.43-12.55,12.43-12.56-2.69-18.48l17.26-1.21c5.47,1.61,12.47-4.29,16.69,3.41-4.43,9.28-8.54,17.72-19,23.32-8.92,4.77-14.79,15.08-22.33,22.63Q399,530.9,298.89,631c-4.59,4.59-10.17,8.63-8.95,16.39A16.88,16.88,0,0,1,278.76,647.24Z" transform="translate(0 0)"/><path class="cls-47" d="M486.56,635.57a30.41,30.41,0,0,1,11.35-11.17c2.73-1.26,4.81-4.5,8.51-2.78,24.9,15,49.63,30.29,74.72,45,29.68,17.36,59.71,34.13,89.51,51.28,41.8,24.06,83,49.27,125.51,71.95,22,11.71,41.66,27.37,65.05,36.51,9.4,3.68,15.63,9.3,7.68,20-4.63,1.62-8.37.75-12.88-1.86-57.6-33.35-115.49-66.19-173.13-99.46S567.52,677.94,509.81,644.48C502.58,640.29,495,636.63,486.56,635.57Z" transform="translate(0 0)"/><path class="cls-48" d="M874,554.43c3.11,8.54,13.57,12.44,14.22,22.54-2.24-.47-5.24-.17-6.6-1.52-20.15-20.2-46.45-29.51-71.62-40.83-12.43-4.92-25.88-6-38.55-10-16.08,1.47-31.71-4.6-47.78-2.82-7.57-2.67-3.1-6.54.17-7.57,18.36-5.75,23-26.44,38.45-34.62,4.92-2.6-2.33-13.89,8.41-9.81,32.66,19.34,61.09,44,88.28,70.21Q866.52,547.23,874,554.43Z" transform="translate(0 0)"/><path class="cls-49" d="M537.39,590.71c-8-1.46-4.62-5.23-1.45-8.34,20.59-20.22,39.71-42.45,62.65-59.53,10.64-7.92,12.84-20.86,24.07-27,5.29-2.9,7.28-10.48,15.2-10.85,3.82-.17,8.24-2.08,7.46-8.1-.56-4.38,3.54-6.7,6.23-8.65C666.9,457.08,678.13,442,691,428.43c.78-.82,2.65-.6,4-.87,4.2.78,8.17,2,11.16,5.32,5.31,4.09,3.16,7.79-.45,11.63C680.48,471.32,653.17,496,627.14,522c-11,11-24.35,19.93-30.68,35l-5.85,5.52c-6.36,1.34-12.11,3.88-16.84,8.45-5.65,1-10.78,3-14,8.17C551,580.53,545.34,587.8,537.39,590.71Z" transform="translate(0 0)"/><path class="cls-50" d="M596.46,557c-2-1.13-10,2.22-4.21-4.7a295.59,295.59,0,0,1,22.55-23.48c16.77-16.08,32.35-33.65,49.09-49.24,12.79-11.9,25-25,38.7-36.18,3.58-2.91,6.11-5.73,3.55-10.51a6.18,6.18,0,0,1,5.62,2.81c14.55,9.94,14.75,11.63,2,24.51-14.44,14.54-30.52,27.89-43.36,43.42-10.55,12.76-24.84,20.67-34.62,33.5-1.83,2.42,2.71,1.11,2.79,3l-16.9,8.42c-7,1.88-14.28,2.94-19.71,8.42Z" transform="translate(0 0)"/><path class="cls-51" d="M720.1,520.41c18-1.92,35.51,3.69,53.42,2.81.82.66,1.09,1.32.81,2s-.56,1-.85,1c-14,1-27.72-2.25-41.61-2.68-4.88-.15-10.34-1.83-14.6,2.47l-25.12.17c-5.9,2.92-12.74.2-18.89,3.49-2.39,1.28-8,1.47-9.86-2.43-2.12-4.48,2.82-7.31,4.18-11,1.29-3.5,4.1-.4,6.5-2.78,4-3.95,6.38-8.71,9.8-12.79A221.83,221.83,0,0,1,718.5,467.4c7-5.39,10.48-14,18.67-17.9a45,45,0,0,1,19.66,11.38c-1.18,16-12.44,26.21-23.06,35.43-8.13,7.07-17.62,12.64-24.68,21.17-2,2.41-5,4-7.31,3.94C707.15,521.76,713.38,515.79,720.1,520.41Z" transform="translate(0 0)"/><path class="cls-52" d="M737.17,449.5c-4,13-14.91,21.42-24.45,28.63a136.79,136.79,0,0,0-27.92,27.75c-4.82,6.53-10.84,11-16.65,16a54.12,54.12,0,0,0-4,4.45c10,3.36,19-2.1,28-.23-.09.9-.18,1.8-.25,2.7-13.54.72-26.83,2.65-39.27,8.47-3.09.12-6.39-.38-8.48,2.8H629.21c10-11,18.19-22.46,32.29-26.83,6.19-22.77,31.11-29.09,42-47.76a21.11,21.11,0,0,1,5.88-6c9.86-7.13,15-14.56,2.36-23.84C721,438.81,729.78,442.91,737.17,449.5Z" transform="translate(0 0)"/><path class="cls-53" d="M720.1,520.41c-8.06,2.39-16.2,3.88-24,2.47,21.37-19.22,47.56-34.16,60.75-62,5.26,2,10.16,4.55,13.91,8.91-5.06,16.54-23.1,23-29.72,38.7C737.56,516.69,725,512.59,720.1,520.41Z" transform="translate(0 0)"/><path class="cls-54" d="M528.92,436.07c6.25-8.07,9.08-18,20.53-22.95C559,409,559,393,571,388.74l2.94-1.17,8.41,3.38c1.83,1.27,5.06,2.36,5.24,3.82.45,3.65-3.66.83-4.82,2.3-8.63,11-26.55,11.47-30.73,28.25-1.28,5.14-12.5,3-14.39,10.85-1.34-.8-2.12-.72-2.91,1-1.05,2.27,4.53,7.58-2.53,6.73C528.58,443.43,533.26,437.42,528.92,436.07Z" transform="translate(0 0)"/><path class="cls-53" d="M773.48,526.15c0-1,0-1.95,0-2.93,11.7,5.31,25.73,3.15,36.52,11.4C797.49,533.39,785.4,530.14,773.48,526.15Z" transform="translate(0 0)"/><path class="cls-55" d="M529,599.16a9,9,0,0,1,8.18-5.76c21.61.85,37,15.59,54.37,25.29,53.18,29.67,105.68,60.55,158.5,90.88,2,1.11,4.39,1.37,6.61,2,34,16.68,66.17,36.49,98.4,56.23,9.31,5.72,20.38,8.51,28.11,16.87,3,2,5.85,4.58,9.16,5.83,11.29,4.25,12.8,10.58,4.9,19.47-24.89-9.68-46.7-25.08-69.77-38.08-48.68-27.42-96.93-55.6-145.35-83.49C630.91,658.93,579.12,630.47,529,599.16Z" transform="translate(0 0)"/><path class="cls-56" d="M855.05,767.82c-25.48-10.12-47.89-25.86-71.48-39.4-9.15-5.26-19.48-8.8-26.92-16.83,11.31.17,20.4,6.65,29.2,12.12C809.07,738.15,835.78,747.21,855.05,767.82Z" transform="translate(0 0)"/><path class="cls-56" d="M883.16,784.69a65.3,65.3,0,0,1-28.11-16.87C865.85,771.05,879,770.39,883.16,784.69Z" transform="translate(0 0)"/><path class="cls-31" d="M540.36,384.78l-16.69-3.41c4.61-1.9,8.74-1.42,8.63-10.24-.92-80.88-.54-161.77-.6-242.66,0-10.19,2.73-16,14.08-10.1h0c5.1,4.82,4.15,11.17,4.16,17.16q.1,115.25,0,230.48c0,6,.85,12.34-4.29,17.11Z" transform="translate(0 0)"/><path class="cls-57" d="M545.65,383.12l.13-264.75a7.46,7.46,0,0,1,8.44,0q-.11,133-.22,266C551,385.3,548.19,385.13,545.65,383.12Z" transform="translate(0 0)"/><path class="cls-26" d="M506.42,621.62l-8.51,2.78c4.7-7.85,12.57-12,19.83-16.82,10.72-2.74,15.23,6.93,22.42,11.23,1.44,11.68,15.6,10.64,19.68,19.68-6.15,6.89-9.42-.55-12.69-3.22-9.72-8-21.13-12.14-32.41-17C509.37,615.94,508.41,618.63,506.42,621.62Z" transform="translate(0 0)"/><path class="cls-26" d="M658.24,694.72c11,2.94,20.6,8.16,28.12,16.87-.72.57-1.39,1.55-2.16,1.63C678.12,713.9,660,700.93,658.24,694.72Z" transform="translate(0 0)"/><path class="cls-26" d="M571.09,644.12c7.54,2,15,4.15,19.68,11.24C581.49,659.84,574.35,655.76,571.09,644.12Z" transform="translate(0 0)"/><path class="cls-26" d="M638.56,683.48c7.55,2,15,4.15,19.68,11.24C650.33,698.17,639.2,691.81,638.56,683.48Z" transform="translate(0 0)"/><path class="cls-26" d="M590.77,655.36c7.54,2,15,4.16,19.68,11.25C602.77,669.94,593.4,664.58,590.77,655.36Z" transform="translate(0 0)"/><path class="cls-26" d="M618.88,672.23c7.55,2,15,4.16,19.68,11.25-4.59-.53-9.3-.59-13.74-1.72S615.3,678.85,618.88,672.23Z" transform="translate(0 0)"/><path class="cls-26" d="M742.59,742.52c6.78-.68,11.13,2.69,14.06,8.43C749.87,751.63,745.52,748.25,742.59,742.52Z" transform="translate(0 0)"/><path class="cls-26" d="M686.36,711.59c4.82-.26,9.12.5,11.24,5.62C689.06,724.94,690.22,713.24,686.36,711.59Z" transform="translate(0 0)"/><path class="cls-26" d="M559.84,638.49c4.82-.26,9.12.5,11.25,5.63C562.54,651.84,563.7,640.14,559.84,638.49Z" transform="translate(0 0)"/><path class="cls-26" d="M706,722.84c4.82-.27,9.12.5,11.25,5.62C708.74,736.18,709.9,724.49,706,722.84Z" transform="translate(0 0)"/><path class="cls-26" d="M725.72,734.08c6.06-.26,10.85,1.16,11.25,8.44C732.56,740.58,727,740.13,725.72,734.08Z" transform="translate(0 0)"/><path class="cls-26" d="M610.45,666.61a8.49,8.49,0,0,1,8.43,5.62C614.79,672.27,610.71,672.31,610.45,666.61Z" transform="translate(0 0)"/></svg>